<svg xmlns="http://www.w3.org/2000/svg" viewBox="0 0 744.03 631.39"><defs><style>.cls-1{fill:#c882ff;}</style></defs><title>Ресурс 3</title><g id="Слой_2" data-name="Слой 2"><g id="Слой_1-2" data-name="Слой 1"><path class="cls-1" d="M469.81,5c28.17,0,51.31,9.58,60.41,25,6.78,11.51,5.74,26.2-3,42.55a247.88,247.88,0,0,0-75.94,73.95,5,5,0,0,0,7,6.87c37.56-25.88,63.26-50.65,76.39-73.66C564,62,596.47,51.49,621.79,51.49c14.92,0,25,3.89,26.24,10.15.6,3-.58,6.85-3.42,11.25-3.6,5.56-9.65,11.71-18,18.28-19.76,15.57-50.61,32.28-91.7,49.67-1.75.71-3.51,1.45-5.24,2.19a5,5,0,0,0,3.92,9.21c1.74-.73,3.45-1.44,5.15-2.17A210.33,210.33,0,0,1,618,134.58c32.23,0,63,7.48,86.7,21,21.73,12.45,34.26,28.31,34.38,43.52.06,7.56-3,14.83-9,21.62-7,7.81-17.67,14.79-31.87,20.76-33.63,14.13-84.09,21.82-150,22.85a5,5,0,0,0-.73,9.93c34.44,5.66,59.95,21.35,75.84,46.63,13.68,21.79,19.57,49.89,17,81.27s-13.53,63.13-30.09,87.26c-17,24.73-37.54,38.35-57.87,38.35-10.12,0-20.16-3.38-29.85-10.06-5.89-5.8-12.36-11.87-19.25-18a5,5,0,0,0-7.16,6.94,107.24,107.24,0,0,0,20,18.8c38.55,38.15,44.7,58.46,42.24,64.45-.83,2-3.21,3.05-7.07,3.05-10.59,0-32-8.3-60.31-31.57-21.08-17.34-52.89-48.79-84.69-100.2a5,5,0,0,0-9.06,4c15.24,53-1,89.95-17.32,111.62a129.23,129.23,0,0,1-44.12,36.88c-15.94,8.18-32.93,12.68-47.82,12.68-10.84,0-35.9-2.73-39.35-27.48,15.14-17.56,29.2-48.68,41.82-92.57a5,5,0,0,0-8.72-4.49c-15.79,19.93-27.45,38.41-34.66,54.92-6.31,14.42-9.26,27.4-8.78,38.63-6.25,6.4-12.24,9.65-17.82,9.65-5.11,0-10-2.82-14.59-8.38-8.54-10.4-14.74-28.89-17.45-52.06-3-25.46-1.53-54.2,4.2-83.11a5,5,0,0,0-8.24-4.7c-49.54,44.26-95.13,50.87-117.89,50.87-17.15,0-32.84-3.69-44.2-10.39C11.86,491.16,5.76,483,5.07,474.18,4.1,462,13.47,449,31.46,437.59c22.67-14.33,58.46-25.7,103.5-32.88,1.7-.25,3.44-.52,5.15-.8a5,5,0,0,0-.8-9.93,4.73,4.73,0,0,0-.75,0l-5.11.79a217.86,217.86,0,0,1-31.18,2.41c-36.56,0-63.37-11.57-75.5-32.57-10.13-17.56-9-40.45,3-61.24a92.72,92.72,0,0,1,35.18-34.08c16.88-9.48,36.29-14.28,57.7-14.28h0a156.67,156.67,0,0,1,32.18,3.48,5.15,5.15,0,0,0,1,.11,5,5,0,0,0,2-9.59c-31-13.47-55.2-28.58-70-43.71C76,193.16,70.49,181.29,72.44,171.94c2.31-11.13,15.53-18,34.5-18,16.1,0,34.86,4.83,54.26,14,22.82,10.74,45.51,26.83,67.43,47.82a5,5,0,0,0,3.46,1.39,5,5,0,0,0,4.18-7.75c-17.73-26.93-27.55-54.74-29.17-82.68-1.4-23.91,3.4-46.82,13.87-66.25,13.81-25.62,35.58-41.54,56.83-41.54,14.8,0,28.07,7.86,38.37,22.73,12.5,18,20.11,45,22.62,80.18a5,5,0,0,0,5,4.65H344a5,5,0,0,0,4.83-5c0-36.8,13.85-67.43,40.06-88.59C410.73,15.14,440.25,5,469.81,5m0-5c-56.26,0-126,36.67-126,121.41-5.5-77.07-35.18-107.56-66-107.56-54.7,0-113,96.11-45.71,198.22-47.77-45.74-93.87-63.17-125.15-63.17-55.81,0-64.42,55.51,48.93,104.74a161.67,161.67,0,0,0-33.21-3.58C1.44,250-33.75,402.23,102.27,402.23a222.18,222.18,0,0,0,31.93-2.46l5.1-.79c-1.71.28-3.42.54-5.1.79C-47.42,428.71-18,512.67,66.43,512.67c34.71,0,78.72-14.16,121.23-52.14-16,80.58,3.08,149.52,32.74,149.52,7.15,0,14.91-4,22.95-12.8-1.78-20.7,9.65-51.15,42.23-92.29-13.73,47.73-28.39,77.14-42.23,92.29,2,23.19,20.56,34.14,44.56,34.14,57,0,144.53-61.61,114.07-167.56C458.66,555.46,524.26,598,551.23,598c21.31,0,18.47-26.55-32-76.36a100.94,100.94,0,0,1-19.38-18.15q10.68,9.54,19.38,18.15c11.08,7.73,22.22,11.2,33.05,11.2,89.46,0,157.38-236.92-4.08-263.44,290.85-4.54,207.9-139.78,69.7-139.79a216.17,216.17,0,0,0-81.11,15.88l-5.15,2.16c1.71-.75,3.44-1.47,5.15-2.16,138.43-58.58,134.43-99,84.95-99-23.49,0-57.21,9.08-90.82,29.63-11.51,20.8-35.2,45.38-75.51,73.14A241.19,241.19,0,0,1,531,76.12C557.66,27.9,518.88,0,469.81,0Z"/></g></g></svg>