<svg xmlns="http://www.w3.org/2000/svg" viewBox="0 0 744.03 631.39"><defs><style>.cls-1{fill:#daff7d;}</style></defs><title>Ресурс 4</title><g id="Слой_2" data-name="Слой 2"><g id="Слой_1-2" data-name="Слой 1"><path class="cls-1" d="M469.81,3c14.1,0,27.28,2.36,38.11,6.83,11,4.54,19.31,11.17,24,19.17,7.22,12.25,6.11,27.79-3.22,45A245.84,245.84,0,0,0,453,147.61a3,3,0,0,0,2.51,4.65,2.94,2.94,0,0,0,1.7-.53c37.57-25.87,63.15-50.58,76.05-73.45,29.72-18,62.78-28.79,88.58-28.79,16.17,0,26.71,4.39,28.2,11.75,2.14,10.55-12.94,24.26-22.13,31.5-19.9,15.68-50.92,32.49-92.14,49.94-1.75.7-3.5,1.44-5.23,2.19a3,3,0,0,0,1.2,5.75,3,3,0,0,0,1.15-.23l5.13-2.15a212.25,212.25,0,0,1,80-15.66c32.57,0,63.72,7.57,87.69,21.31C728,166.7,740.91,183.19,741,199.13c.06,8.06-3.14,15.79-9.53,23-7.15,8-18.12,15.19-32.59,21.27-33.87,14.24-84.58,22-150.71,23a3,3,0,0,0-.44,6c35,5.75,61,21.75,77.21,47.54,13.92,22.15,19.9,50.68,17.31,82.5-2.58,31.66-13.68,63.82-30.43,88.22-17.37,25.29-38.51,39.22-59.52,39.22-10.58,0-21.05-3.54-31.13-10.51-5.9-5.82-12.39-11.9-19.3-18.08a3,3,0,0,0-2-.76,3,3,0,0,0-2.09.85,3,3,0,0,0-.21,4.08,104.72,104.72,0,0,0,19.75,18.54c16.86,16.67,29.11,31.42,36.41,43.83,8.09,13.77,7.48,20.27,6.39,22.92C559,593.52,556,595,551.23,595c-10.94,0-32.86-8.42-61.58-32-21.2-17.43-53.18-49-85.12-100.69a3,3,0,0,0-2.56-1.42,2.9,2.9,0,0,0-1.21.26,3,3,0,0,0-1.67,3.57C414.56,518.45,398,556,381.45,578a131.27,131.27,0,0,1-44.81,37.46c-16.22,8.32-33.52,12.9-48.73,12.9-11.67,0-21.63-2.7-28.79-7.82s-11.54-12.7-12.66-22.3c15.17-17.2,29.29-48.3,42-92.48a3,3,0,0,0-1.51-3.5,2.94,2.94,0,0,0-1.37-.33,3,3,0,0,0-2.36,1.13c-29.52,37.29-44.35,69.43-43,93.08-6.86,7.22-13.53,10.88-19.86,10.88-5.74,0-11.17-3.07-16.13-9.11-8.79-10.69-15.14-29.55-17.9-53.09-3-25.67-1.54-54.63,4.23-83.73a3,3,0,0,0-1.46-3.19,2.91,2.91,0,0,0-1.48-.4,3,3,0,0,0-2,.77c-50,44.7-96.18,51.37-119.23,51.37-17.5,0-33.56-3.79-45.22-10.67-11-6.46-17.39-15.22-18.14-24.66-1-13,8.68-26.66,27.32-38.44,22.91-14.48,59-25.95,104.24-33.16,1.7-.25,3.43-.52,5.16-.8a3,3,0,0,0-.49-6l-.44,0c-1.73.26-3.44.52-5.09.79a220.85,220.85,0,0,1-31.5,2.43C65,399.23,37.54,387.31,25,365.66c-10.5-18.18-9.38-41.82,3-63.24A94.69,94.69,0,0,1,64,267.6c17.18-9.65,36.92-14.54,58.68-14.54h0a158.56,158.56,0,0,1,32.59,3.52,3.27,3.27,0,0,0,.62.07,3,3,0,0,0,1.19-5.76c-31.23-13.57-55.65-28.83-70.6-44.14-12.39-12.69-18.07-25.2-16-35.22C73,159.42,87,151.9,106.94,151.9c16.39,0,35.45,4.89,55.12,14.15,23,10.83,45.87,27,68,48.19a3,3,0,0,0,4.58-3.82c-17.93-27.22-27.85-55.37-29.5-83.66-1.41-24.29,3.47-47.57,14.11-67.32,14.16-26.27,36.6-42.59,58.59-42.59,15.48,0,29.32,8.16,40,23.59,12.71,18.34,20.44,45.65,23,81.18a3,3,0,0,0,3,2.79h.11a3,3,0,0,0,2.9-3c0-37.42,14.11-68.6,40.8-90.15C409.83,13.3,439.8,3,469.81,3m0-3c-56.26,0-126,36.67-126,121.41-5.5-77.07-35.18-107.56-66-107.56-54.7,0-113,96.11-45.71,198.22-47.77-45.74-93.87-63.17-125.15-63.17-55.81,0-64.42,55.51,48.93,104.74a161.67,161.67,0,0,0-33.21-3.58C1.44,250-33.75,402.23,102.27,402.23a222.18,222.18,0,0,0,31.93-2.46l5.1-.79c-1.71.28-3.42.54-5.1.79C-47.42,428.71-18,512.67,66.43,512.67c34.71,0,78.72-14.16,121.23-52.14-16,80.58,3.08,149.52,32.74,149.52,7.15,0,14.91-4,22.95-12.8-1.78-20.7,9.65-51.15,42.23-92.29-13.73,47.73-28.39,77.14-42.23,92.29,2,23.19,20.56,34.14,44.56,34.14,57,0,144.53-61.61,114.07-167.56C458.66,555.46,524.26,598,551.23,598c21.31,0,18.47-26.55-32-76.36a100.94,100.94,0,0,1-19.38-18.15q10.68,9.54,19.38,18.15c11.08,7.73,22.22,11.2,33.05,11.2,89.46,0,157.38-236.92-4.08-263.44,290.85-4.54,207.9-139.78,69.7-139.79a216.17,216.17,0,0,0-81.11,15.88l-5.15,2.16c1.71-.75,3.44-1.47,5.15-2.16,138.43-58.58,134.43-99,84.95-99-23.49,0-57.21,9.08-90.82,29.63-11.51,20.8-35.2,45.38-75.51,73.14A241.19,241.19,0,0,1,531,76.12C557.66,27.9,518.88,0,469.81,0Z"/></g></g></svg>