<svg xmlns="http://www.w3.org/2000/svg"
  viewBox="0 0 711.56 523.24">
  <defs>
    <style>.cls-1{fill:#daff7d;}</style>
  </defs>
  <title>Ресурс 2</title>
  <g id="Слой_2" data-name="Слой 2">
    <g id="Слой_1-2" data-name="Слой 1">
      <g id="Слой_1-2-2" data-name="Слой 1-2">
        <path class="cls-1" d="M509.77,457.69c11.23-10.55-27.08-65.39-93-122.81,94.68,50.79,169.47,79.7,206.68,79.7,17.46,0,22.31-6.64,23.3-12.21,1.08-6-2-13.49-9.15-22.16-6.89-8.37-17.14-17.44-30.48-27-18.88-13.49-42.85-27-69.92-39.52q22.74,5.64,43,9.38c25.68,4.75,48.27,7.13,67.12,7.13,20.82,0,36.95-2.9,47.95-8.62,13.46-7,16.29-16.73,16.29-23.65,0-9.32-5.1-19.76-14.73-30.2-9.46-10.25-23.06-20.22-39.33-28.83-37.57-19.89-85-30.85-133.66-30.85h-.06a334.44,334.44,0,0,0-59.08,5.29c38.3-18.88,62.12-38.88,76.15-53.66,21.15-22.29,31.92-45.56,28.77-62.22-2.35-12.56-12.14-19.76-26.88-19.76-9.07,0-19.73,2.67-31.66,8a194.3,194.3,0,0,0-31,17.77,92.89,92.89,0,0,0,7.8-32.63c.6-13.39-2.21-25.86-8.14-36.08a48,48,0,0,0-16-16.83,41.52,41.52,0,0,0-21.82-6.22c-32.1,0-72.29,36.32-90.54,137.6-22.16-29.89-41.52-56.75-57.29-78.61C251.5,11.59,242.66,0,237,0h0a4.12,4.12,0,0,0-3.51,1.88c-1.83,2.82-2,7.67,12.89,44.61C251,58,256.83,72,263.94,88.74,252.82,71.35,241.44,56.41,230,44.27c-21.63-23-43.34-35.66-61.11-35.67C154.64,8.6,144,16.75,139.74,31c-5.78,19.29.81,46.56,18.09,74.82,13.22,21.65,32.19,43.16,55.89,63.61C179.25,150.27,148,135.06,120.27,124c-35.11-14.07-63.5-21.2-84.36-21.2-11.49,0-20.43,2.21-26.59,6.58S0,120.05,0,127.81c0,11.06,6.36,24.39,18.37,38.54,12.3,14.47,29.68,28.74,50.26,41.25a316.24,316.24,0,0,0,77.16,33.31,351.84,351.84,0,0,0,49.15,10.33c-18.43,1.7-35.68,3.93-51.59,6.7-26.75,4.65-49.76,10.78-68.41,18.22-17,6.81-30.15,14.59-39,23.13-8.41,8.11-12.77,16.9-12.62,25.41.21,10.86,7.61,20.63,20.86,27.53s31.39,10.54,52.42,10.54c41,0,87.79-13.6,134.05-38.68-10.34,13-20,24.34-25.59,42.51-7.64,24.68-7.85,43-2.62,59.16,3.49,10.81,9.93,16.75,18.12,16.75a20.76,20.76,0,0,0,8-1.71c-14.69,52.06-1.62,77.44,29.35,81.91,20.51,3,44-6.33,63.19-30.25,15.45-19.22,42.6-52.65,37-137.39C444.09,434.89,498.27,468.5,509.77,457.69Z"/>
      </g>
    </g>
  </g>
</svg>